<?xml version="1.0" standalone="no"?>
<!DOCTYPE svg PUBLIC "-//W3C//DTD SVG 20010904//EN"
 "http://www.w3.org/TR/2001/REC-SVG-20010904/DTD/svg10.dtd">
<svg version="1.0" xmlns="http://www.w3.org/2000/svg"
 width="1280.000000pt" height="1280.000000pt" viewBox="0 0 1280.000000 1280.000000"
 preserveAspectRatio="xMidYMid meet">

<g transform="translate(0.000000,1280.000000) scale(0.100000,-0.100000)"
fill="#fff" stroke="none">

<path d="M10140 8845 c-36 -8 -157 -32 -270 -54 -547 -107 -1077 -210 -1490
-291 -250 -49 -1263 -247 -2250 -440 -987 -193 -2001 -391 -2252 -440 -581
-114 -1281 -251 -1693 -332 -308 -60 -321 -63 -355 -94 -32 -30 -35 -37 -35
-89 0 -55 2 -59 46 -99 25 -22 404 -331 842 -684 l797 -644 0 -927 0 -928 23
-34 c27 -40 88 -66 133 -55 20 5 173 151 524 501 l495 495 885 -716 c487 -394
896 -720 910 -726 34 -13 97 -4 122 19 11 10 864 1223 1895 2696 1295 1849
1876 2687 1879 2710 6 38 -20 92 -56 119 -36 26 -76 29 -150 13z m8 -158 c-10
-7 -1348 -787 -2975 -1735 l-2958 -1723 -300 -589 c-233 -456 -301 -582 -303
-559 -3 24 17 379 73 1338 8 134 16 245 17 246 2 1 626 294 1388 652 2443
1149 4598 2162 4835 2274 127 60 232 109 235 109 3 -1 -3 -6 -12 -13z"/>
</g>
</svg>
